<svg xmlns="http://www.w3.org/2000/svg" version="1.1" xmlns:xlink="http://www.w3.org/1999/xlink" xmlns:svgjs="http://svgjs.dev/svgjs" width="128" height="128" viewBox="0 0 128 128"><g transform="matrix(0.8046875,0,0,0.8046875,12.639197812921125,6.279246471774194)"><svg viewBox="0 0 138 155" data-background-color="#004051" preserveAspectRatio="xMidYMid meet" height="143" width="128" xmlns="http://www.w3.org/2000/svg" xmlns:xlink="http://www.w3.org/1999/xlink"><g id="tight-bounds" transform="matrix(1,0,0,1,-0.18649804061277564,0.25)"><svg viewBox="0 0 138.37299608122552 154.5" height="154.5" width="138.37299608122552"><g><svg viewBox="0 0 138.37299608122552 154.5" height="154.5" width="138.37299608122552"><g><svg viewBox="0 0 138.37299608122552 154.5" height="154.5" width="138.37299608122552"><g id="textblocktransform"><svg viewBox="0 0 138.37299608122552 154.5" height="154.5" width="138.37299608122552" id="textblock"><g><svg viewBox="0 0 138.37299608122552 154.5" height="154.5" width="138.37299608122552"><g transform="matrix(1,0,0,1,0,0)"><svg width="138.37299608122552" viewBox="2.1499999999999995 -39.95 35.91428571428571 40.1" height="154.5" data-palette-color="#32fd6b"><g class="wordmark-text-0" data-fill-palette-color="primary" id="text-0"><path d="M26.9-33.05L18.3-22.65 29.85-7.35Q32-4.3 34.05-2.25L34.05-2.25 37.95-1.85Q38.15-1 38 0L38 0Q30.5-0.15 28.7-0.15L28.7-0.15Q25-0.15 22.75 0.05L22.75 0.05Q22.45-0.8 22.7-1.75L22.7-1.75 26.8-2.45Q26.35-3.4 23.25-7.75L23.25-7.75 14.85-19.3 12-19.3 12-2.2 16.05-1.7Q16.25-0.95 16.05 0.15L16.05 0.15Q12.9 0 9.2 0L9.2 0Q6.5 0 2.3 0.1L2.3 0.1Q2-0.8 2.3-1.7L2.3-1.7 6.45-2.3Q6.65-4.2 6.65-8.15L6.65-8.15 6.65-37.6 2.6-38.1Q2.4-38.85 2.6-39.95L2.6-39.95Q5.35-39.75 9.45-39.75L9.45-39.75Q13.1-39.75 16.35-39.9L16.35-39.9Q16.65-39 16.35-38.1L16.35-38.1 12.2-37.5Q12-35.6 12-31.65L12-31.65 12-21.85 14.65-21.85 27.3-37.6 23.25-38.1Q23.05-38.85 23.25-39.95L23.25-39.95Q26-39.75 29-39.75L29-39.75Q31.6-39.75 34.8-39.9L34.8-39.9Q35.1-39 34.8-38.1L34.8-38.1 31.45-37.5Q29.15-35.7 26.9-33.05L26.9-33.05Z" fill="#32fd6b" data-fill-palette-color="primary"></path></g></svg></g></svg></g></svg></g></svg></g><g></g></svg></g><defs></defs></svg><rect width="138.37299608122552" height="154.5" fill="none" stroke="none" visibility="hidden"></rect></g></svg></g></svg>